<svg xmlns="http://www.w3.org/2000/svg" width="52" height="60" viewBox="0 0 52 60">
  <g id="Outline" transform="translate(-6 -2)">
    <path id="Path_7769" data-name="Path 7769" d="M40.535,48.8H35.819l-4.677-8.86,2.435-4.216a4.13,4.13,0,1,0-7.154,0l2.435,4.216L24.181,48.8H19.465a4.1,4.1,0,1,0,3.567,6.121L25.367,50.8h9.266l2.335,4.121A4.1,4.1,0,1,0,40.535,48.8ZM21.292,53.935A2.1,2.1,0,1,1,19.465,50.8h3.6Zm6.864-19.211a2.13,2.13,0,1,1,3.688,0L30,37.918ZM26.442,48.8,30,42.061,33.558,48.8Zm15.921,5.135a2.1,2.1,0,0,1-3.655,0L36.932,50.8h3.6a2.1,2.1,0,0,1,1.828,3.135ZM15.5,10H12a1,1,0,0,0-1,1V21a1,1,0,0,0,2,0V17h2.5a3.5,3.5,0,0,0,0-7Zm0,5H13V12h2.5a1.5,1.5,0,0,1,0,3ZM24,10H22a1,1,0,0,0-1,1V21a1,1,0,0,0,1,1h2a5.006,5.006,0,0,0,5-5V15a5.006,5.006,0,0,0-5-5Zm3,7a3,3,0,0,1-3,3H23V12h1a3,3,0,0,1,3,3Zm11-7H32a1,1,0,0,0-1,1V21a1,1,0,0,0,2,0V17h4a1,1,0,0,0,0-2H33V12h5a1,1,0,0,0,0-2Z" fill="#004289"/>
    <circle id="Ellipse_22" data-name="Ellipse 22" cx="1" cy="1" r="1" transform="translate(52 42)" fill="#004289"/>
    <path id="Path_7770" data-name="Path 7770" d="M57,2H11a1,1,0,0,0-1,1V6H7A1,1,0,0,0,6,7V61a1,1,0,0,0,1,1H53a1,1,0,0,0,1-1V58h3a1,1,0,0,0,1-1V3A1,1,0,0,0,57,2ZM8,8H42v7a3,3,0,0,0,3,3h7v6H8Zm36,7V9.414L50.586,16H45A1,1,0,0,1,44,15ZM56,56H54V47a1,1,0,0,0-2,0V60H8V26H52V39a1,1,0,0,0,2,0V17a1,1,0,0,0-.293-.707l-10-10A1,1,0,0,0,43,6H12V4H56Z" fill="#004289"/>
  </g>
</svg>
